<?xml version="1.0" standalone="no"?>
<!DOCTYPE svg PUBLIC "-//W3C//DTD SVG 20010904//EN"
 "http://www.w3.org/TR/2001/REC-SVG-20010904/DTD/svg10.dtd">
<svg version="1.0" xmlns="http://www.w3.org/2000/svg"
 width="3000.000000pt" height="2000.000000pt" viewBox="0 0 3000.000000 2000.000000"
 preserveAspectRatio="xMidYMid meet">

<g transform="translate(0.000000,2000.000000) scale(0.100000,-0.100000)"
fill="#000000" stroke="none">
<path d="M0 10000 l0 -10000 10597 0 10596 0 -109 110 c-60 61 -112 118 -116
128 -4 9 -7 13 -7 9 -1 -14 -54 53 -83 107 -16 28 -48 89 -71 136 -24 47 -48
94 -54 105 -25 47 -63 162 -63 191 0 11 -4 24 -9 30 -16 15 -33 231 -26 333
10 152 75 419 105 429 5 2 10 9 10 16 0 17 65 139 106 199 20 29 64 83 97 122
94 105 374 385 386 385 6 0 11 5 11 11 0 6 51 62 113 125 61 62 133 135 158
161 25 26 57 58 70 69 22 19 409 411 844 853 88 89 168 167 178 172 9 5 17 16
17 24 0 8 5 15 10 15 6 0 104 95 218 212 217 222 774 783 1458 1470 223 225
410 408 415 408 5 0 9 5 9 11 0 6 198 208 440 449 242 241 440 443 440 449 0
6 4 11 9 11 10 0 341 325 420 412 l43 47 -16 78 c-9 43 -21 80 -26 81 -6 2
-10 12 -10 22 0 14 5 17 23 13 12 -3 27 -11 32 -17 6 -6 19 -12 30 -12 20 -2
81 -10 100 -14 25 -6 37 3 51 35 8 20 21 38 29 41 8 4 12 10 9 15 -3 5 1 9 9
9 8 0 27 16 41 35 30 39 76 87 76 79 0 -3 11 7 25 22 14 15 25 31 25 35 0 5 3
8 7 7 5 -1 38 28 75 65 37 37 65 67 62 67 -4 0 6 10 22 22 16 13 43 38 59 56
40 45 85 90 128 128 20 17 33 34 30 38 -4 3 0 6 8 6 9 0 28 18 45 40 16 22 37
42 47 46 9 3 17 10 17 15 0 5 15 23 33 39 57 54 139 136 241 239 54 55 107
103 117 106 11 4 19 10 19 14 0 14 70 81 85 81 7 0 22 11 32 24 10 14 59 46
108 72 50 26 92 50 95 54 3 4 30 15 60 25 30 10 69 23 85 30 63 27 151 55 170
54 11 0 70 6 131 13 62 8 125 10 140 7 33 -8 164 -21 212 -21 18 1 45 -6 60
-14 15 -7 35 -14 44 -14 10 0 43 -11 74 -25 31 -14 60 -22 66 -19 5 3 21 -2
36 -12 15 -10 36 -24 47 -30 47 -25 70 -40 89 -56 11 -10 29 -18 40 -18 12 -1
39 -19 61 -40 22 -22 45 -40 51 -40 5 0 26 -18 45 -40 19 -22 39 -40 45 -40 5
0 23 -18 40 -40 16 -22 32 -40 35 -40 4 0 36 -30 70 -66 223 -231 494 -495
515 -500 13 -3 24 -10 24 -15 0 -5 5 -9 10 -9 7 0 10 2035 10 6085 l0 6085
-7231 0 -7230 0 24 -32 c14 -18 40 -62 59 -98 20 -36 45 -82 57 -103 11 -20
26 -59 32 -85 7 -26 15 -51 19 -57 14 -19 31 -108 46 -234 11 -100 12 -146 3
-226 -10 -98 -37 -225 -57 -275 -38 -95 -52 -124 -94 -197 -26 -45 -77 -120
-113 -165 -86 -107 -1776 -1799 -1878 -1881 -77 -61 -104 -78 -223 -143 -126
-68 -374 -128 -519 -125 -246 4 -523 95 -715 234 -49 35 -1839 1817 -1900
1892 -100 121 -193 294 -236 439 -14 49 -31 144 -38 210 -15 155 1 326 45 466
31 99 123 290 166 347 l25 33 -5121 0 -5121 0 0 -10000z m7035 8305 c99 -6
219 -31 305 -63 8 -3 29 -7 45 -9 17 -3 34 -9 39 -14 6 -5 16 -9 24 -9 16 0
85 -30 92 -41 3 -4 33 -27 67 -52 33 -25 72 -54 85 -64 12 -10 135 -129 271
-266 l248 -248 51 3 52 3 1 -59 2 -58 84 -82 c46 -45 170 -169 276 -276 106
-107 359 -361 563 -565 204 -203 391 -390 415 -415 24 -25 76 -77 117 -117 40
-39 148 -147 239 -240 92 -92 231 -231 310 -309 230 -225 579 -581 579 -589 0
-4 14 -24 30 -45 17 -21 30 -41 30 -45 0 -4 22 -44 48 -88 58 -99 84 -164 112
-280 39 -160 28 -472 -22 -612 -15 -43 -38 -97 -48 -117 -6 -10 -10 -23 -10
-30 0 -7 -26 -57 -58 -110 -63 -106 -155 -224 -217 -278 -22 -19 -66 -63 -98
-97 -31 -35 -86 -89 -121 -120 -35 -32 -65 -60 -65 -63 -1 -3 -345 -350 -766
-770 -421 -421 -774 -781 -784 -800 -16 -30 -28 -66 -36 -106 -10 -46 -18 -53
-73 -69 -31 -9 -70 -21 -87 -27 -17 -7 -229 -211 -505 -488 -475 -475 -567
-560 -670 -617 -30 -17 -72 -41 -93 -52 -39 -22 -91 -40 -222 -79 -104 -31
-256 -46 -377 -37 -159 11 -167 12 -196 23 -15 6 -61 20 -102 33 -68 21 -297
130 -310 148 -3 4 -20 18 -39 31 -19 13 -59 47 -89 74 -85 79 -2949 2934
-3055 3046 -53 56 -130 155 -156 200 -53 92 -105 199 -116 238 -7 26 -20 72
-30 102 -19 63 -32 137 -39 230 -6 71 10 300 24 340 4 14 18 59 30 100 12 41
38 107 58 145 19 39 45 88 56 110 41 82 108 157 386 436 157 157 360 363 452
457 93 95 172 172 176 172 5 0 26 17 47 38 27 28 45 60 65 121 15 45 30 84 33
87 2 3 44 19 93 36 l88 31 305 308 c169 170 336 339 374 377 64 64 67 70 71
121 4 62 14 71 76 71 40 1 80 17 80 33 0 3 120 127 268 275 147 148 284 288
305 312 20 23 37 40 37 38 0 -2 91 87 202 197 112 110 221 214 243 230 22 16
42 33 45 36 3 3 20 12 38 20 17 8 32 17 32 21 0 5 8 8 19 8 10 0 24 7 31 15 6
8 22 17 33 21 12 4 33 15 46 25 13 11 32 19 42 19 11 0 27 4 37 9 61 30 145
50 213 51 30 0 59 4 65 9 12 13 87 19 149 13 28 -3 64 -6 80 -7z m-2624 -717
c9 -7 23 -25 32 -40 14 -22 15 -28 4 -28 -23 0 -67 40 -67 61 0 22 10 24 31 7z
m23029 -5233 c0 -3 -9 -23 -20 -45 -11 -22 -20 -46 -20 -54 0 -17 -25 -33 -80
-53 -46 -17 -60 -16 -60 2 0 8 4 15 8 15 4 0 16 22 26 48 17 43 25 51 70 69
53 22 76 27 76 18z m1020 -1145 c0 -5 -5 -10 -11 -10 -5 0 -7 5 -4 10 3 6 8
10 11 10 2 0 4 -4 4 -10z m-23558 -6422 c2 -7 2 -26 -1 -43 -6 -28 -10 -30
-53 -33 l-46 -3 4 33 c8 54 11 58 53 58 22 0 41 -5 43 -12z"/>
<path d="M6870 18239 c-19 -5 -64 -11 -100 -14 -36 -2 -103 -18 -150 -34 -47
-17 -95 -30 -107 -31 -13 0 -23 -3 -23 -7 0 -5 -10 -13 -23 -19 -95 -46 -169
-90 -198 -117 -19 -18 -50 -45 -69 -60 -57 -46 -1040 -1028 -1041 -1041 -1 -6
-2 -31 -3 -56 l-1 -44 -42 2 c-23 2 -54 -3 -70 -12 -15 -8 -121 -108 -235
-223 -114 -114 -278 -278 -364 -363 -158 -158 -190 -201 -199 -266 -6 -52 -27
-78 -71 -92 -22 -6 -55 -16 -76 -22 -35 -11 -128 -83 -128 -100 0 -4 -79 -86
-176 -182 -97 -95 -208 -206 -247 -247 -40 -40 -148 -148 -241 -240 -196 -193
-170 -165 -249 -265 -66 -84 -163 -260 -186 -336 -7 -25 -20 -65 -29 -90 -41
-122 -40 -449 3 -570 7 -21 11 -41 8 -44 -4 -3 -2 -6 4 -6 6 0 13 -17 17 -37
9 -53 103 -233 151 -288 22 -26 51 -61 65 -77 63 -76 3047 -3068 3114 -3123
20 -16 51 -42 69 -56 37 -31 230 -139 247 -139 6 0 53 -13 103 -29 51 -16 121
-32 157 -36 36 -3 79 -8 95 -10 108 -15 348 14 393 48 6 5 12 7 12 4 0 -19
262 104 306 144 11 10 24 19 28 19 4 0 19 13 34 30 15 16 43 41 61 54 35 26
131 116 192 182 20 22 101 102 179 179 78 77 184 184 235 238 52 53 96 97 98
97 8 0 147 142 147 151 0 5 5 9 11 9 6 0 23 12 38 28 49 49 81 105 92 165 13
62 21 71 84 82 69 13 127 58 311 245 98 100 188 190 198 199 22 19 945 941
1145 1145 74 75 136 136 139 136 6 0 202 202 202 208 0 3 8 12 18 21 9 9 24
25 32 37 8 12 33 45 54 74 113 150 188 360 203 559 7 104 -11 269 -37 341 -11
29 -17 56 -15 61 3 4 1 10 -4 13 -5 3 -12 23 -15 43 -9 49 -53 158 -83 203
-13 19 -23 39 -23 43 0 5 -24 37 -52 70 -29 33 -62 72 -73 86 -11 14 -87 92
-170 173 -82 81 -153 151 -157 155 -4 4 -495 497 -1092 1096 -597 598 -1093
1088 -1103 1088 -10 1 -38 1 -62 -1 l-44 -2 6 52 6 53 -50 51 c-237 242 -373
376 -380 376 -4 0 -9 3 -11 8 -10 23 -161 131 -203 146 -58 21 -68 24 -75 22
-3 0 -24 13 -45 29 -67 52 -169 86 -310 104 -131 17 -188 19 -225 10z"/>
<path d="M10263 19953 c-51 -61 -141 -229 -160 -296 -7 -29 -21 -77 -30 -107
-8 -30 -21 -106 -27 -168 -22 -207 20 -434 116 -624 27 -53 54 -103 61 -110 8
-7 22 -26 33 -43 46 -72 230 -261 1194 -1220 598 -597 738 -728 834 -789 65
-41 174 -93 221 -105 28 -7 66 -19 86 -27 64 -23 268 -47 349 -40 133 11 175
16 200 25 14 5 65 22 115 37 96 28 207 85 314 161 41 28 409 390 966 948 938
940 945 947 963 982 7 12 18 28 25 35 30 29 86 127 141 248 9 18 29 77 43 130
25 88 27 109 27 275 0 162 -3 190 -27 280 -15 55 -35 123 -46 150 -27 71 -110
217 -149 265 l-34 40 -2588 0 -2588 0 -39 -47z"/>
<path d="M28288 8634 c-4 -3 -31 -8 -60 -9 -29 -2 -53 -4 -53 -5 0 -1 -8 -3
-19 -5 -10 -2 -40 -13 -67 -24 -26 -12 -58 -21 -71 -21 -13 0 -33 -7 -44 -15
-10 -8 -27 -15 -36 -15 -10 0 -18 -5 -18 -10 0 -6 -8 -14 -17 -17 -9 -4 -25
-15 -35 -25 -10 -10 -25 -18 -34 -18 -20 0 -141 -99 -149 -122 -4 -10 -15 -18
-25 -18 -11 0 -27 -12 -37 -27 -22 -33 -137 -153 -147 -153 -4 0 -32 -28 -64
-62 -31 -33 -65 -68 -74 -77 -30 -29 -36 -34 -192 -191 -85 -85 -160 -159
-166 -165 -6 -5 -77 -76 -158 -157 -233 -234 -259 -258 -280 -258 -39 0 -40
-126 -3 -194 35 -63 34 -67 -16 -40 -25 15 -55 27 -67 29 -11 1 -46 5 -76 10
-30 4 -52 4 -49 1 3 -3 -83 -96 -193 -206 -109 -110 -198 -205 -198 -210 0 -6
-6 -10 -14 -10 -8 0 -17 -9 -21 -19 -3 -10 -15 -21 -25 -24 -11 -3 -20 -12
-20 -21 0 -9 -5 -16 -11 -16 -14 0 -69 -55 -69 -69 0 -6 -5 -11 -11 -11 -6 0
-163 -153 -350 -340 -186 -187 -342 -340 -346 -341 -4 0 -39 -36 -78 -79 -38
-43 -73 -79 -77 -79 -9 -1 -172 -168 -176 -182 -2 -5 -10 -9 -17 -9 -7 0 -20
-10 -28 -22 -28 -41 -94 -108 -105 -108 -7 0 -12 -7 -12 -15 0 -8 -4 -15 -10
-15 -5 0 -67 -59 -137 -131 -70 -73 -143 -146 -162 -163 -32 -29 -513 -504
-1190 -1176 -675 -671 -1500 -1487 -1522 -1506 -13 -12 -50 -48 -81 -80 -32
-33 -68 -69 -80 -80 -13 -12 -49 -48 -80 -80 -31 -33 -65 -66 -75 -76 -93 -84
-270 -286 -291 -333 -35 -75 -58 -121 -63 -125 -7 -5 -15 -30 -59 -175 -10
-33 -22 -94 -25 -135 -4 -41 -9 -84 -11 -95 -7 -37 17 -219 42 -319 30 -118
99 -265 151 -323 21 -23 54 -60 73 -82 43 -50 140 -150 140 -144 0 3 16 -15
36 -39 20 -23 75 -80 123 -125 l86 -82 4278 -1 4277 0 -2 3727 -3 3726 -47 26
c-67 38 -82 54 -124 139 -41 82 -63 111 -133 176 -40 38 -251 249 -251 251 0
4 -112 115 -116 115 -5 0 -51 47 -96 98 -14 17 -29 28 -32 25 -3 -4 -6 -1 -6
5 0 15 -52 62 -61 56 -5 -2 -13 6 -20 18 -7 12 -24 32 -38 43 -14 11 -35 29
-46 41 -11 12 -31 25 -45 29 -14 4 -33 14 -42 23 -10 8 -18 11 -18 7 0 -4 -8
-2 -17 7 -10 8 -30 19 -45 26 -16 6 -28 16 -28 22 0 6 -8 10 -17 9 -25 -4 -93
10 -93 19 0 12 -91 37 -145 40 -200 10 -281 12 -287 6z m-1682 -1679 c4 -8 10
-15 15 -15 13 0 99 -87 99 -99 0 -20 -17 -11 -50 27 -18 20 -47 52 -63 70 -17
17 -25 32 -19 32 7 0 15 -7 18 -15z m379 -371 c129 -129 235 -240 235 -245 0
-5 5 -9 11 -9 16 0 179 -162 179 -177 0 -22 -14 -14 -64 37 -27 28 -52 50 -57
50 -5 0 -9 4 -9 9 0 8 -265 277 -373 379 -18 17 -63 62 -101 101 -38 39 -73
71 -78 71 -5 0 -6 5 -3 10 3 6 11 10 16 10 5 0 115 -106 244 -236z m671 -665
c33 -31 73 -72 90 -90 55 -59 107 -98 183 -137 50 -25 85 -51 110 -82 20 -24
51 -58 70 -75 19 -16 40 -36 47 -42 7 -7 15 -13 18 -13 3 0 34 -13 68 -30 153
-72 414 -113 578 -92 48 7 94 10 102 7 8 -3 28 1 44 10 16 8 41 15 55 15 14 0
34 7 45 15 10 8 33 14 49 14 17 0 23 -3 15 -6 -8 -3 -28 -11 -45 -18 -61 -26
-143 -45 -234 -55 -51 -6 -96 -12 -100 -14 -3 -2 -64 0 -136 5 -119 8 -175 17
-230 39 -11 5 -49 16 -85 25 -36 9 -72 23 -80 29 -17 14 -73 40 -110 51 -25 8
-133 55 -179 78 -21 11 -57 61 -80 113 -5 12 -68 82 -140 155 -72 74 -131 137
-131 141 0 4 -13 15 -30 25 -16 9 -30 21 -30 25 0 4 -23 30 -51 57 -31 30 -48
54 -44 61 5 8 36 -17 90 -72 46 -45 109 -108 141 -139z m2084 -33 c0 -3 -4 -8
-10 -11 -5 -3 -10 -1 -10 4 0 6 5 11 10 11 6 0 10 -2 10 -4z m-57 -61 c-3 -9
-8 -14 -10 -11 -3 3 -2 9 2 15 9 16 15 13 8 -4z m-79 -80 c-4 -8 -11 -15 -16
-15 -6 0 -5 6 2 15 7 8 14 15 16 15 2 0 1 -7 -2 -15z m-44 -42 c-1 -12 -50
-45 -50 -34 0 5 7 17 16 25 16 17 34 21 34 9z m-83 -80 c-15 -16 -17 -16 -17
-1 0 9 6 18 13 21 20 7 22 -2 4 -20z m-42 -43 c-9 -10 -30 -24 -46 -30 -16 -7
-29 -16 -29 -21 0 -5 -6 -9 -14 -9 -8 0 -16 -3 -18 -8 -1 -4 -34 -23 -73 -42
-38 -19 -71 -38 -73 -42 -2 -5 -11 -8 -20 -8 -26 0 20 33 108 77 19 10 37 21
38 26 2 4 11 7 20 7 10 0 37 18 61 40 43 38 79 46 46 10z"/>
</g>
</svg>
